<svg xmlns="http://www.w3.org/2000/svg" width="24" height="24" viewBox="0 0 24 24">
  <g id="그룹_1511" data-name="그룹 1511" transform="translate(-283 -22)">
    <rect id="사각형_1235" data-name="사각형 1235" width="24" height="24" transform="translate(283 22)" fill="none"/>
    <g id="Regular-S" transform="translate(276.012 96.502)">
      <path id="패스_877" data-name="패스 877" d="M8.789-64.889a8.179,8.179,0,0,0,.654,3.256,8.478,8.478,0,0,0,1.81,2.682,8.407,8.407,0,0,0,2.675,1.8,8.237,8.237,0,0,0,3.263.647,8.172,8.172,0,0,0,2.55-.4,8.4,8.4,0,0,0,2.233-1.11l4.914,4.928a1.362,1.362,0,0,0,.462.291,1.479,1.479,0,0,0,.515.092,1.264,1.264,0,0,0,.951-.383,1.333,1.333,0,0,0,.37-.964,1.376,1.376,0,0,0-.1-.522,1.394,1.394,0,0,0-.271-.429l-4.888-4.9a8.376,8.376,0,0,0,1.215-2.319,8.21,8.21,0,0,0,.436-2.675,8.165,8.165,0,0,0-.654-3.263,8.555,8.555,0,0,0-1.8-2.675,8.4,8.4,0,0,0-2.675-1.81,8.179,8.179,0,0,0-3.256-.654,8.165,8.165,0,0,0-3.263.654,8.5,8.5,0,0,0-2.675,1.81,8.5,8.5,0,0,0-1.81,2.675A8.165,8.165,0,0,0,8.789-64.889Zm2.034,0a6.294,6.294,0,0,1,.489-2.477,6.267,6.267,0,0,1,1.367-2.028,6.488,6.488,0,0,1,2.035-1.367,6.221,6.221,0,0,1,2.477-.5,6.174,6.174,0,0,1,2.47.5,6.509,6.509,0,0,1,2.028,1.367,6.355,6.355,0,0,1,1.374,2.028,6.221,6.221,0,0,1,.5,2.477,6.174,6.174,0,0,1-.5,2.47,6.454,6.454,0,0,1-1.374,2.028,6.454,6.454,0,0,1-2.028,1.374,6.174,6.174,0,0,1-2.47.5,6.221,6.221,0,0,1-2.477-.5,6.433,6.433,0,0,1-2.035-1.374,6.362,6.362,0,0,1-1.367-2.028A6.246,6.246,0,0,1,10.824-64.889Z"/>
    </g>
  </g>
</svg>
