<svg xmlns="http://www.w3.org/2000/svg" width="16" height="16" viewBox="0 0 16 16">
  <g id="그룹_337" data-name="그룹 337" transform="translate(-24 -220)">
    <rect id="사각형_446" data-name="사각형 446" width="16" height="16" transform="translate(24 220)" fill="none"/>
    <g id="Light-S" transform="translate(17.164 293.926)">
      <path id="패스_592" data-name="패스 592" d="M14.831-57.936a7.737,7.737,0,0,0,3.094-.623,8.084,8.084,0,0,0,2.551-1.731,8.224,8.224,0,0,0,1.733-2.554,7.667,7.667,0,0,0,.628-3.087,7.667,7.667,0,0,0-.628-3.087,8.2,8.2,0,0,0-1.736-2.554A8.124,8.124,0,0,0,17.918-73.3a7.737,7.737,0,0,0-3.094-.623,7.724,7.724,0,0,0-3.086.623,8.019,8.019,0,0,0-2.547,1.731,8.267,8.267,0,0,0-1.728,2.554,7.667,7.667,0,0,0-.628,3.087,7.667,7.667,0,0,0,.628,3.087A8.239,8.239,0,0,0,9.195-60.29a8.059,8.059,0,0,0,2.551,1.731A7.724,7.724,0,0,0,14.831-57.936Zm0-6.528q-.559,0-.572-.592l-.094-4.31a.611.611,0,0,1,.182-.471.662.662,0,0,1,.485-.185.657.657,0,0,1,.483.188.618.618,0,0,1,.183.474l-.1,4.3Q15.383-64.464,14.831-64.464Zm0,2.571a.8.8,0,0,1-.572-.23.741.741,0,0,1-.242-.557.751.751,0,0,1,.242-.56.8.8,0,0,1,.572-.234.816.816,0,0,1,.58.23.746.746,0,0,1,.244.564.735.735,0,0,1-.244.56A.823.823,0,0,1,14.831-61.893Z" fill="#94969b"/>
    </g>
  </g>
</svg>
